<svg width="32" height="24" viewBox="0 0 32 24" fill="none" xmlns="http://www.w3.org/2000/svg">
<g clip-path="url(#clip0_40_1250)">
<path d="M30.4695 5.96537C29.468 4.15657 28.01 2.65357 26.2466 1.61212C24.4194 0.528496 22.3376 -0.0288038 20.2237 -0.000203259H11.7778C9.66392 -0.0288038 7.5821 0.528496 5.75496 1.61212C3.99315 2.65456 2.53645 4.1574 1.53533 5.96537C0.531056 7.81203 0.00415039 9.88858 0.00415039 11.9998C0.00415039 14.111 0.531056 16.1876 1.53533 18.0342C2.53684 19.843 3.99485 21.346 5.75826 22.3875C7.5854 23.4711 9.66721 24.0284 11.7811 23.9998H20.227C22.3409 24.0284 24.4227 23.4711 26.2499 22.3875C28.0136 21.3465 29.4717 19.8434 30.4728 18.0342C31.4771 16.1876 32.004 14.111 32.004 11.9998C32.004 9.88858 31.4771 7.81203 30.4728 5.96537H30.4695ZM27.3229 16.2002C26.6019 17.468 25.5665 18.5204 24.3205 19.252C23.0745 19.9836 21.6617 20.3687 20.2237 20.3687C18.7857 20.3687 17.3729 19.9836 16.1269 19.252C14.8809 18.5204 13.8456 17.468 13.1245 16.2002C12.4194 14.9174 12.0491 13.4718 12.0491 12.0015C12.0491 10.5312 12.4194 9.08552 13.1245 7.80274C13.8456 6.53499 14.8809 5.48258 16.1269 4.75099C17.3729 4.01939 18.7857 3.6343 20.2237 3.6343C21.6617 3.6343 23.0745 4.01939 24.3205 4.75099C25.5665 5.48258 26.6019 6.53499 27.3229 7.80274C28.0291 9.08516 28.4 10.531 28.4 12.0015C28.4 13.472 28.0291 14.9178 27.3229 16.2002Z" fill="white"/>
</g>
<defs>
<clipPath id="clip0_40_1250">
<rect width="32" height="24" fill="white"/>
</clipPath>
</defs>
</svg>
