<svg width="210" height="53" viewBox="0 0 210 53" fill="none" xmlns="http://www.w3.org/2000/svg">
<path d="M182.267 7.51309C180.955 5.20626 179.156 3.38618 176.849 2.03171C174.542 0.677236 171.96 0 169.124 0H158.289C155.431 0 152.85 0.677236 150.564 2.03171C148.257 3.38618 146.458 5.20626 145.146 7.51309C143.834 9.81993 143.178 12.3596 143.178 15.1108C143.178 17.8621 143.834 20.4018 145.146 22.7086C146.458 25.0154 148.257 26.8355 150.564 28.19C152.871 29.5444 155.453 30.2217 158.289 30.2217H169.124C171.981 30.2217 174.563 29.5444 176.849 28.19C179.156 26.8355 180.955 25.0154 182.267 22.7086C183.579 20.4018 184.235 17.8621 184.235 15.1108C184.235 12.3596 183.579 9.79877 182.267 7.51309ZM178.225 20.4018C177.294 22.0102 176.045 23.2588 174.436 24.2112C172.828 25.1424 171.05 25.608 169.103 25.608C167.135 25.608 165.357 25.1424 163.77 24.2112C162.162 23.28 160.913 22.0102 159.982 20.4018C159.05 18.7933 158.606 17.0367 158.606 15.1108C158.606 13.185 159.072 11.4072 159.982 9.81993C160.913 8.21149 162.162 6.96284 163.77 6.01047C165.378 5.07927 167.156 4.61367 169.103 4.61367C171.071 4.61367 172.849 5.07927 174.436 6.01047C176.045 6.94168 177.294 8.21149 178.225 9.81993C179.156 11.4284 179.6 13.185 179.6 15.1108C179.622 17.0367 179.156 18.7933 178.225 20.4018Z" fill="#35424B"/>
<path d="M51.6874 13.8622C49.6133 13.8622 48.0472 13.8199 47.0102 13.7352C45.952 13.6506 44.9785 13.5236 44.0473 13.3543C43.2219 13.185 42.4812 13.1003 41.8463 13.1003C40.9574 13.1003 40.2378 13.3754 39.7299 13.9468C39.222 14.5183 38.9468 15.1955 38.9468 15.9997C38.9468 16.7404 39.2008 17.3965 39.7299 17.9679C40.2378 18.5394 40.9574 18.8145 41.8463 18.8145C43.0526 18.8145 44.4706 18.4547 45.952 18.3277C46.6716 18.2642 47.6663 18.2219 48.9361 18.2219V22.1583C48.0684 23.2165 46.9044 24.0631 45.4229 24.6345C43.9415 25.2271 42.333 25.5234 40.5976 25.5234C38.5871 25.5234 36.7882 25.0789 35.2432 24.2112C33.6983 23.3223 32.4708 22.0948 31.6242 20.5076C30.7565 18.9203 30.3332 17.1214 30.3332 15.1108C30.3332 13.1003 30.7565 11.3014 31.5819 9.75644C32.4073 8.2115 33.5924 7.00517 35.0951 6.15862C36.5977 5.31208 38.3331 4.8888 40.3013 4.8888C42.46 4.8888 44.0261 5.26975 45.3594 6.17979C47.243 7.49193 47.3911 8.88873 48.6821 9.48131C50.481 10.3067 51.7932 9.20619 52.0471 8.99455C52.7032 8.38081 52.9995 7.66124 52.9149 6.8147C52.8302 5.96815 52.4281 5.14277 51.7085 4.38088C50.5657 3.19571 48.9996 2.20102 47.0314 1.37564C45.0208 0.486765 42.7986 0.0634918 40.3225 0.0634918C37.4654 0.0634918 34.8834 0.698401 32.5554 1.96822C30.2274 3.23804 28.3862 5.01579 27.0317 7.30146C25.6772 9.58713 25 12.1903 25 15.0897C25 17.9891 25.6772 20.5922 27.0317 22.8779C28.3862 25.1636 30.2274 26.9625 32.5766 28.2323C34.9258 29.5233 37.5289 30.1582 40.3648 30.1582C43.0949 30.1582 45.5922 29.6714 47.8567 28.6979C50.1213 27.7244 51.9202 26.2429 53.2746 24.2959C53.7826 23.5128 54.0577 22.5393 54.0577 21.3541V16.5288C54.0577 15.7246 53.8461 15.0685 53.4016 14.5818C52.9783 14.095 52.4069 13.8622 51.6874 13.8622Z" fill="#35424B"/>
<path d="M69.0205 17.3965C71.1368 17.5235 71.3696 17.9044 73.3167 17.9044C74.2267 17.9044 74.9463 17.6505 75.5177 17.1425C76.0891 16.6135 76.3643 15.9362 76.3643 15.0897C76.3643 14.2643 76.0891 13.5659 75.5177 13.0156C74.9463 12.4654 74.2267 12.1903 73.3379 12.1903C71.3908 12.1903 71.1792 12.6135 69.084 12.7617C68.1951 12.8252 66.9464 12.8463 65.2957 12.8463V5.12159C66.9888 5.10043 68.3644 5.10043 69.4014 5.14276C70.4384 5.18509 71.3062 5.24858 72.0257 5.39672C74.2902 5.88349 75.2003 6.37025 76.8934 6.37025C77.8457 6.37025 78.6076 6.11629 79.1579 5.58719C79.7081 5.0581 80.0044 4.3597 80.0044 3.47083C80.0044 2.51847 79.7081 1.77774 79.0944 1.26981C78.4806 0.761883 77.6341 0.486755 76.5547 0.486755H62.4809C61.7825 0.486755 61.2323 0.698392 60.809 1.12166C60.3857 1.54494 60.1741 2.07403 60.1741 2.75127V27.5127C60.1741 28.1688 60.3857 28.7191 60.809 29.1423C61.2323 29.5656 61.7825 29.7772 62.4809 29.7772H76.5547C77.6764 29.7772 78.5441 29.5021 79.1155 28.973C79.7081 28.4439 80.0044 27.7032 80.0044 26.7932C80.0044 25.9043 79.7293 25.1847 79.1579 24.6345C78.5864 24.0842 77.8457 23.8091 76.8934 23.8091C75.0733 23.8091 73.9939 24.698 70.6924 25.0154C69.5072 25.1424 67.7083 25.1636 65.3168 25.1424V17.3119C66.8829 17.3119 68.1104 17.333 69.0205 17.3965Z" fill="#35424B"/>
<path d="M109.633 20.7615C108.85 20.1266 108.025 19.8938 107.136 20.0631C104.935 20.4864 104.956 22.5393 103.073 23.9573C101.782 24.9308 100.067 25.4175 97.9299 25.4175C96.0886 25.4175 94.4379 24.9943 92.9987 24.1266C91.5596 23.2589 90.4379 22.0525 89.6549 20.4864C88.8718 18.9203 88.4697 17.1214 88.4697 15.1108C88.4697 13.1003 88.8718 11.3014 89.6549 9.75644C90.4379 8.2115 91.5596 6.984 92.9776 6.13746C94.3955 5.29091 96.0463 4.84648 97.9299 4.84648C98.9457 4.84648 99.8769 4.90997 100.702 5.1851C104.914 6.66655 103.94 8.6771 106.036 9.73528C106.565 10.0104 107.115 10.1162 107.707 10.0739C108.279 10.0316 108.829 9.79877 109.358 9.35433C110.078 8.78292 110.395 8.04219 110.332 7.15331C110.268 6.26444 109.866 5.39673 109.147 4.57135C108.088 3.30153 106.586 2.24335 104.681 1.37564C102.755 0.507929 100.575 0.0846558 98.1415 0.0846558C95.3479 0.0846558 92.8082 0.719565 90.5437 1.96822C88.2581 3.21688 86.4803 4.99462 85.1682 7.2803C83.856 9.56597 83.2 12.1903 83.2 15.132C83.2 18.0738 83.856 20.6769 85.1682 22.9626C86.4803 25.2482 88.2792 27.026 90.5437 28.2958C92.8082 29.5656 95.3479 30.2005 98.1415 30.2005C100.681 30.2005 102.903 29.7561 104.829 28.8672C106.755 27.9783 108.3 26.8567 109.443 25.5445C110.226 24.7191 110.628 23.8514 110.67 22.9626C110.692 22.0314 110.353 21.3118 109.633 20.7615Z" fill="#35424B"/>
<path d="M122.501 3.21688C122.501 2.13753 122.226 1.50262 121.676 0.931201C121.125 0.359783 120.321 0.0634918 119.263 0.0634918C118.247 0.0634918 117.464 0.40211 116.914 1.07935C116.342 1.75658 116.067 2.58197 116.067 3.55549V26.6239C116.067 27.5974 116.342 28.4228 116.914 29.1C117.485 29.7773 118.268 30.1159 119.263 30.1159C120.321 30.1159 121.125 29.8196 121.676 29.2482C122.226 28.6767 122.501 27.9149 122.501 27.0048C122.48 26.3064 122.353 25.608 122.162 24.7191C121.824 23.2165 121.612 22.4758 121.443 20.8885C121.316 19.7034 121.252 17.7563 121.252 15.0685C121.252 12.3807 121.316 10.4548 121.443 9.24852C121.781 6.13746 122.501 4.95229 122.501 3.21688Z" fill="#35424B"/>
<path d="M133.4 19.6399C132.321 18.6452 130.776 17.0579 128.765 14.9204C130.945 12.5924 132.617 10.9204 133.76 9.88342C134.903 8.86757 135.961 7.97869 136.977 7.2168C137.929 6.5184 138.67 5.90465 139.178 5.3544C139.813 4.63484 140.13 3.89411 140.151 3.11105C140.173 2.328 139.898 1.67193 139.347 1.12167C138.649 0.465597 137.887 0.169306 137.019 0.253961C136.152 0.338615 135.326 0.825379 134.522 1.71425L124.025 13.1215C123.411 13.8199 123.115 14.4548 123.115 15.0685C123.115 15.7034 123.411 16.3595 124.025 17.0156L135.009 28.5921C135.813 29.4598 136.659 29.9254 137.527 29.9889C138.395 30.0524 139.199 29.7773 139.876 29.1C141.273 27.7032 140.702 25.9255 139.644 24.7826C138.691 23.8091 137.337 23.2588 133.4 19.6399Z" fill="#35424B"/>
<path d="M5.952 49.16C4.34133 49.16 3.14133 48.76 2.352 47.96C1.57333 47.1493 1.184 45.9547 1.184 44.376V37.72H3.248V44.36C3.248 45.3627 3.46133 46.12 3.888 46.632C4.32533 47.144 5.01333 47.4 5.952 47.4C6.848 47.4 7.52 47.144 7.968 46.632C8.42667 46.12 8.656 45.3627 8.656 44.36V37.72H10.688V44.376C10.688 45.9547 10.288 47.1493 9.488 47.96C8.69867 48.76 7.52 49.16 5.952 49.16ZM25.7317 49V37.72H27.2837L33.8278 46.184H33.4117V37.72H35.3317V49H33.7797L27.2517 40.536H27.6517V49H25.7317ZM50.4499 49V37.72H52.5139V49H50.4499ZM71.2847 49L66.2607 37.72H68.4847L72.5327 47.192H71.8607L75.9087 37.72H78.0527L73.0287 49H71.2847ZM91.808 49V37.72H99.408V39.336H93.792V42.456H99.04V44.088H93.792V47.368H99.408V49H91.808ZM113.964 49V37.72H118.892C120.129 37.72 121.084 38.0133 121.756 38.6C122.438 39.1867 122.78 40.0027 122.78 41.048C122.78 41.7413 122.625 42.3333 122.316 42.824C122.017 43.3147 121.585 43.6933 121.02 43.96C120.454 44.216 119.788 44.344 119.02 44.344L119.244 44.04H119.788C120.236 44.04 120.636 44.1573 120.988 44.392C121.34 44.6267 121.628 44.984 121.852 45.464L123.5 49H121.228L119.564 45.336C119.414 44.9627 119.185 44.7173 118.876 44.6C118.577 44.4827 118.214 44.424 117.788 44.424H116.028V49H113.964ZM116.028 42.904H118.556C119.281 42.904 119.83 42.7547 120.204 42.456C120.588 42.1467 120.78 41.6987 120.78 41.112C120.78 40.5253 120.588 40.0827 120.204 39.784C119.83 39.4853 119.281 39.336 118.556 39.336H116.028V42.904ZM141.743 49.16C140.836 49.16 139.999 49.048 139.231 48.824C138.473 48.5893 137.823 48.2693 137.279 47.864L137.919 46.248C138.281 46.504 138.66 46.7227 139.055 46.904C139.449 47.0747 139.871 47.208 140.319 47.304C140.767 47.3893 141.241 47.432 141.743 47.432C142.585 47.432 143.193 47.2933 143.567 47.016C143.94 46.7387 144.127 46.376 144.127 45.928C144.127 45.5333 143.999 45.2347 143.743 45.032C143.487 44.8187 143.028 44.6427 142.367 44.504L140.559 44.136C139.524 43.9227 138.751 43.5653 138.239 43.064C137.727 42.5627 137.471 41.8907 137.471 41.048C137.471 40.344 137.657 39.7307 138.031 39.208C138.404 38.6853 138.927 38.28 139.599 37.992C140.271 37.704 141.055 37.56 141.951 37.56C142.751 37.56 143.492 37.6773 144.175 37.912C144.857 38.136 145.428 38.4613 145.887 38.888L145.247 40.424C144.788 40.04 144.287 39.7573 143.743 39.576C143.199 39.384 142.591 39.288 141.919 39.288C141.161 39.288 140.569 39.4373 140.143 39.736C139.727 40.024 139.519 40.424 139.519 40.936C139.519 41.3307 139.647 41.6453 139.903 41.88C140.169 42.1147 140.617 42.296 141.247 42.424L143.039 42.776C144.105 42.9893 144.895 43.3413 145.407 43.832C145.919 44.312 146.175 44.9627 146.175 45.784C146.175 46.456 145.993 47.048 145.631 47.56C145.268 48.0613 144.756 48.456 144.095 48.744C143.433 49.0213 142.649 49.16 141.743 49.16ZM160.759 49V37.72H162.823V49H160.759ZM180.602 49V39.416H176.874V37.72H186.394V39.416H182.666V49H180.602ZM203.448 49V43.672L203.88 44.904L199.032 37.72H201.416L204.744 42.84H204.296L207.624 37.72H209.928L205.096 44.904L205.512 43.672V49H203.448Z" fill="#35424B"/>
</svg>
